<svg width="169" height="155" viewBox="0 0 169 155" fill="none" xmlns="http://www.w3.org/2000/svg">
<path d="M97.3921 87.9411C96.0336 88.2471 94.7103 88.8122 93.5043 89.6008C90.3623 91.6052 88.5333 94.4622 89.4192 95.9816C90.3051 97.501 93.5703 97.107 96.7122 95.1026C97.9344 94.3419 99.0204 93.3702 99.9032 92.2479C100.313 91.7057 100.387 91.0307 100.092 90.5267L98.9411 88.5528C98.6483 88.0472 98.0404 87.8075 97.3921 87.9411Z" fill="#D5D6DB"/>
<path d="M89.5042 60.9481C88.5192 61.1702 87.5595 61.5801 86.685 62.152C84.4073 63.605 83.0803 65.6766 83.7221 66.7774C84.364 67.8782 86.7325 67.5923 89.0099 66.1394C89.8961 65.5875 90.6835 64.8826 91.3238 64.0687C91.6205 63.6757 91.6739 63.1867 91.4602 62.8213L90.6269 61.3921C90.4148 61.0256 89.9744 60.8513 89.5042 60.9481Z" fill="#D5D6DB"/>
<path d="M76.6904 62.0954C76.4712 62.0713 76.2374 62.1301 76.0345 62.2598L70.6843 65.6734C70.2368 65.9581 70.0574 66.5052 70.2841 66.8957C70.3359 66.9852 70.4069 67.0616 70.4931 67.1204L83.6685 76.1774L101.509 64.7947L76.6904 62.0954Z" fill="#029BC5"/>
<path d="M133.064 60.7627L84.5269 91.3325L55.8154 102.781L41.1747 105.709L39.566 102.979L120.469 53.0012C122.88 51.5054 125.566 50.5854 128.254 50.3346C129.431 50.2311 130.594 50.2684 131.714 50.4451C132.708 50.594 133.65 50.8827 134.513 51.3027C135.477 51.7786 137.311 51.8308 137.904 52.7809C137.906 52.7794 139.305 57.1434 133.064 60.7627V60.7627Z" fill="#E1E6E9"/>
<path d="M85.1821 87.3213L64.1695 120.776C63.907 121.246 64.0623 121.772 64.516 121.95C64.7944 122.06 65.1353 122.016 65.4217 121.833L70.7669 118.44C71.795 117.787 72.7054 116.958 73.442 116.005L114.181 68.1404L85.1821 87.3213Z" fill="#029BC5"/>
<path d="M32.1995 86.199C31.8493 86.0799 31.4324 86.1426 31.0804 86.3671L26.6608 89.1857C26.0586 89.5695 25.8183 90.3059 26.1238 90.8308C26.182 90.9305 26.2577 91.0183 26.3484 91.0906L38.7197 100.978L51.7389 92.8346L32.1995 86.199Z" fill="#029BC5"/>
<path d="M42.876 102.775L36.21 112.101C36.1122 112.235 36.1351 112.403 36.261 112.476C36.3518 112.529 36.4758 112.519 36.5766 112.452L40.7056 109.833C40.7377 109.813 40.7667 109.787 40.7907 109.758L50.5298 97.9261L42.876 102.775Z" fill="#029BC5"/>
<path d="M130.912 50.8554C129.758 50.6719 128.56 50.6342 127.348 50.7426C126.166 52.3938 125.41 54.2477 125.155 56.1196C125.137 56.4955 125.44 56.7656 125.833 56.7229C125.955 56.7095 126.076 56.6664 126.186 56.5976L133.796 51.7466C132.907 51.3098 131.936 51.0098 130.912 50.8554Z" fill="#029BC5"/>
<path d="M114.332 59.7729L119.303 56.6284L123.926 64.4899L118.955 67.6344L114.332 59.7729Z" fill="#D5D6DB"/>
<path d="M111.207 62.8792C110.608 63.2593 110.369 63.9883 110.672 64.5074L111.164 65.3483C111.488 65.8541 112.227 65.942 112.816 65.5444C113.376 65.1658 113.602 64.4789 113.332 63.9724L112.841 63.1315C112.537 62.6128 111.806 62.4998 111.207 62.8792V62.8792Z" fill="#3A556A"/>
<path d="M106.743 65.6517C106.144 66.0317 105.904 66.7607 106.208 67.2798L106.7 68.1208C107.023 68.6266 107.763 68.7144 108.351 68.3168C108.912 67.9382 109.138 67.2513 108.868 66.7449L108.376 65.9039C108.073 65.3854 107.342 65.2724 106.743 65.6517V65.6517Z" fill="#3A556A"/>
<path d="M102.277 68.425C101.679 68.8056 101.44 69.5337 101.743 70.0523L102.235 70.8933C102.559 71.3991 103.298 71.4869 103.887 71.0893C104.447 70.7107 104.673 70.0238 104.403 69.5174L103.912 68.6765C103.608 68.1574 102.876 68.0448 102.277 68.425V68.425Z" fill="#3A556A"/>
<path d="M97.8128 71.1974C97.2145 71.5779 96.9756 72.3061 97.2789 72.8247L97.7707 73.6657C98.0943 74.1715 98.8337 74.2593 99.4224 73.8618C99.9826 73.4831 100.209 72.7963 99.9391 72.2898L99.4472 71.4488C99.1434 70.9299 98.4117 70.8174 97.8128 71.1974V71.1974Z" fill="#3A556A"/>
<path d="M93.3488 73.9701C92.7502 74.3508 92.5111 75.0792 92.8146 75.5981L93.3068 76.4394C93.6102 76.9581 94.3415 77.0706 94.9403 76.6907C95.5391 76.3108 95.7785 75.5824 95.4751 75.0637L94.983 74.2224C94.6804 73.7033 93.9493 73.59 93.3501 73.9693C93.3496 73.9696 93.3493 73.9697 93.3488 73.9701Z" fill="#3A556A"/>
<path d="M88.8845 76.7425C88.2858 77.1232 88.0468 77.8517 88.3503 78.3706L88.8424 79.2119C89.1458 79.7305 89.8772 79.843 90.4759 79.4631C91.0747 79.0833 91.3142 78.3548 91.0108 77.8362L90.5186 76.9949C90.216 76.4757 89.4849 76.3625 88.8857 76.7417C88.8852 76.742 88.8847 76.7424 88.8845 76.7425Z" fill="#3A556A"/>
<path d="M84.4199 79.5151C83.8212 79.8958 83.5821 80.6242 83.8857 81.1431L84.3778 81.9844C84.6819 82.5025 85.4136 82.6139 86.0118 82.2335C86.6089 81.8538 86.8479 81.1269 86.5459 80.6089L86.0537 79.7676C85.7505 79.2485 85.0191 79.1355 84.4199 79.5151Z" fill="#3A556A"/>
<path d="M79.9553 82.2876C79.3566 82.6683 79.1175 83.3967 79.4211 83.9156L79.9132 84.7569C80.2173 85.2751 80.949 85.3865 81.5472 85.0061C82.1443 84.6263 82.3833 83.8994 82.0813 83.3814L81.5891 82.5401C81.2859 82.021 80.5545 81.9079 79.9553 82.2876Z" fill="#3A556A"/>
<path d="M75.491 85.06C74.8924 85.4407 74.6533 86.1691 74.9568 86.688L75.449 87.5293C75.7531 88.0474 76.4848 88.1588 77.0829 87.7784C77.6801 87.3987 77.919 86.6718 77.617 86.1538L77.1249 85.3125C76.8214 84.7936 76.09 84.6805 75.491 85.06Z" fill="#3A556A"/>
<path d="M71.0251 87.8332C70.4263 88.2131 70.1869 88.9415 70.4902 89.4602L70.4909 89.4613L70.983 90.3026C71.2872 90.8208 72.0189 90.9321 72.617 90.5517C73.2141 90.172 73.4531 89.4451 73.1511 88.9271L72.659 88.0857C72.3557 87.5667 71.6244 87.4536 71.0251 87.8332Z" fill="#3A556A"/>
<path d="M66.562 90.6049C65.9632 90.9848 65.7237 91.7132 66.0271 92.2318L66.0278 92.2329L66.5199 93.0742C66.824 93.5924 67.5558 93.7037 68.1539 93.3233C68.751 92.9436 68.99 92.2167 68.688 91.6987L68.1959 90.8574C67.8923 90.3385 67.161 90.2255 66.562 90.6049Z" fill="#3A556A"/>
</svg>
